<?xml version="1.0" encoding="UTF-8"?>
<svg id="Layer_1" data-name="Layer 1" xmlns="http://www.w3.org/2000/svg" viewBox="0 0 517.69 792.5">
  <defs>
    <style>
      .cls-1 {
        fill: #0041bc;
      }
    </style>
  </defs>
  <path class="cls-1" d="m517.44,533.98v17.56c-.16.28-.42.56-.44.85-.16,2.42-.16,4.85-.41,7.25-.67,6.52-1.26,13.05-2.21,19.53-.93,6.27-1.91,12.58-3.5,18.7-2.44,9.37-5.11,18.72-8.29,27.86-2.83,8.14-6.31,16.07-9.87,23.93-2.55,5.64-5.56,11.09-8.62,16.47-3.2,5.64-6.48,11.26-10.13,16.6-4.13,6.05-8.69,11.81-13.12,17.65-5.92,7.81-12.41,15.12-19.6,21.79-5.41,5.02-10.77,10.11-16.4,14.88-4.95,4.19-10.09,8.19-15.4,11.91-11.94,8.35-24.41,15.83-37.78,21.66-6.48,2.83-13.02,5.53-19.64,7.99-9.54,3.56-19.34,6.32-29.33,8.28-7.75,1.52-15.58,2.71-23.42,3.74-5.07.67-10.21.79-15.32,1.18-.3.02-.57.29-.86.44h-31.8c-.28-.15-.56-.42-.85-.44-5.45-.51-10.93-.87-16.36-1.52-5.95-.71-11.94-1.36-17.78-2.64-8.46-1.86-16.86-4.08-25.18-6.49-9.74-2.81-19.22-6.46-28.26-11.05-9.09-4.62-18.02-9.63-26.74-14.94-5.63-3.42-10.9-7.49-16.07-11.59-6.28-4.97-12.58-9.99-18.35-15.54-6.99-6.72-13.57-13.89-20.06-21.11-4.66-5.19-9.16-10.59-13.23-16.25-6.84-9.5-13.45-19.18-19.83-28.99-6.94-10.67-13.46-21.61-20.23-32.38-6.16-9.82-12.47-19.54-18.6-29.38-3.63-5.84-3.2-10.22,2.74-14.31,5.48-3.78,11.14-7.31,16.79-10.85,12.35-7.75,24.76-15.41,37.12-23.15,13.79-8.63,27.56-17.3,41.32-25.97,14.88-9.38,29.75-18.77,44.61-28.17,6.29-3.98,12.55-8.02,18.83-12.02,3.01-1.91,5.9-4.06,9.47-4.86,1.27-.28,2.66-.76,3.85-.5,2.98.64,5.44,2.38,7.1,4.93,3.46,5.33,6.76,10.76,10.14,16.13,6.28,9.96,12.57,19.9,18.84,29.86,4.26,6.75,8.5,13.52,12.74,20.29,3.45,5.51,6.94,11.03,11.57,15.63,3.55,3.52,7.57,6.51,12.31,8.34,5.58,2.16,11.3,2.55,17.17,1.29,4.17-.89,7.97-2.54,11.58-4.76,5.19-3.2,9.41-7.37,12.02-12.9,3.09-6.54,3.32-13.46,1.93-20.45-1.31-6.61-4.21-12.62-7.7-18.3-6.49-10.6-13.17-21.08-19.79-31.6-5.74-9.09-11.53-18.14-17.25-27.24-8.55-13.61-17.03-27.25-25.58-40.85-5.56-8.84-11.25-17.61-16.82-26.45-8.96-14.22-17.87-28.48-26.81-42.71-6.23-9.92-12.52-19.79-18.67-29.75-4.29-6.95-8.57-13.92-12.52-21.07-4.33-7.84-7.86-16.06-10.23-24.74-2.05-7.51-3.34-15.14-3.49-22.92-.08-3.94.07-7.89.37-11.82.3-3.95.76-7.9,1.43-11.8,2.27-13.22,7.18-25.5,13.99-36.99,6.45-10.9,14.7-20.31,24.5-28.37,7.55-6.2,15.83-11.21,24.86-14.8,14.13-5.61,28.8-8.79,44.1-8.61,1.04,0,2.11-.54,3.12-.42,3.25.4,6.46,1.13,9.71,1.49,7.54.83,14.93,2.42,21.95,5.24,6.05,2.43,11.96,5.28,17.78,8.25,5.48,2.79,10.49,6.39,15,10.58,4.38,4.08,9,8.01,12.77,12.62,5.59,6.82,10.41,14.26,15.78,21.27,1.84,2.41,4.08,4.7,6.58,6.39,4.08,2.77,8.57,1.96,12.72-.08,10.85-5.37,20.69-12.41,30.6-19.3,2.35-1.64,4.6-3.61,6.38-5.85,3.01-3.8,2.45-8.2.24-12.04-4.12-7.11-8.41-14.15-13.15-20.85-4.31-6.08-9.07-11.88-14.09-17.4-6.07-6.67-12.74-12.76-19.92-18.29-8.22-6.32-16.82-11.98-25.97-16.85-10.3-5.48-21.06-9.86-32.26-13.11-7.94-2.3-15.97-4.2-24.2-5.11-5.98-.67-11.95-1.53-17.95-1.76-8.35-.32-16.72-.26-25.02,1.02-6.22.96-12.47,1.71-18.62,2.98-13.07,2.7-25.62,7.04-37.67,12.77-8.21,3.91-16.05,8.46-23.55,13.59-8.13,5.57-15.81,11.7-22.74,18.71-3.49,3.54-6.95,7.13-10.15,10.93-3.99,4.73-7.96,9.53-11.49,14.6-6.65,9.54-12.44,19.61-16.69,30.45-3.01,7.68-5.95,15.44-8.07,23.4-2.08,7.78-3.3,15.82-4.49,23.8-.85,5.77-1.31,11.64-1.44,17.47-.12,5.68.29,11.38.68,17.06.31,4.43.67,8.89,1.48,13.26,1.44,7.76,2.83,15.56,4.95,23.15,4.38,15.64,11.43,30.15,20.03,43.9,8.15,13.04,16.27,26.09,24.47,39.09,6.25,9.9,12.68,19.69,18.89,29.61,3.37,5.38,3.36,10.01-2.56,14.04-2.28,1.55-4.75,2.81-7.08,4.28-13.31,8.38-26.59,16.81-39.91,25.17-2.23,1.4-4.59,2.64-7.42,1.83-2.49-.71-4.09-2.5-5.4-4.52-8.07-12.38-16.11-24.77-24.1-37.2-4.71-7.32-9.42-14.65-13.93-22.09-4.51-7.45-8.96-14.94-13.09-22.61-4.23-7.83-8.42-15.71-11.9-23.88-3.73-8.75-6.8-17.79-9.78-26.83-1.92-5.82-3.22-11.85-4.68-17.81-2.16-8.87-3.65-17.86-4.38-26.96-.54-6.68-1.17-13.36-1.4-20.05-.18-5.33.09-10.69.33-16.02.24-5.13.51-10.26,1.11-15.35.79-6.67,1.79-13.32,2.9-19.94,1.71-10.11,4.2-20.05,7.57-29.72,3.17-9.1,6.64-18.13,10.53-26.94,3.47-7.85,7.35-15.56,11.68-22.97,4.58-7.81,9.69-15.33,14.96-22.7,5.99-8.41,12.57-16.37,19.86-23.71,3.38-3.39,6.68-6.87,10.18-10.13,4.19-3.91,8.36-7.91,12.91-11.38,7.54-5.76,15.27-11.27,23.1-16.62,12.01-8.2,25.03-14.55,38.43-20.08,12.63-5.22,25.65-9.33,39.01-12.22,6.08-1.31,12.23-2.32,18.37-3.31,4.62-.74,9.27-1.35,13.93-1.8,4.26-.42,8.56-.52,12.84-.79.41-.03.81-.3,1.22-.45h25.95c.28.15.55.42.84.44,5.7.51,11.42.86,17.1,1.52,5.95.7,11.94,1.35,17.78,2.64,8.33,1.85,16.65,3.94,24.78,6.53,7.75,2.46,15.3,5.58,22.85,8.61,9.88,3.96,19.07,9.28,28.16,14.76,2.33,1.4,4.75,2.63,7.03,4.1,1.4.91,2.57,2.17,3.9,3.2,3.14,2.4,6.42,4.62,9.45,7.14,6.64,5.52,13.26,11.05,19.67,16.81,3.74,3.37,7.16,7.12,10.53,10.86,5.14,5.7,10.35,11.35,15.1,17.36,6.11,7.73,11.9,15.71,17.6,23.74,4,5.63,7.69,11.48,11.41,17.3,4.42,6.94,8.73,13.95,13.05,20.94,5.22,8.42,10.4,16.87,15.59,25.3,2.93,4.76,5.96,9.45,8.72,14.31.75,1.34,1,3.18.89,4.74-.22,3.1-2.45,5.09-4.83,6.66-5.67,3.73-11.43,7.31-17.17,10.92-9.29,5.87-18.59,11.72-27.89,17.56-13.42,8.43-26.85,16.84-40.26,25.27-12.2,7.67-24.38,15.36-36.56,23.05-11.22,7.07-22.43,14.16-33.67,21.21-3.56,2.23-7.13,4.47-10.81,6.48-3.44,1.87-6.99,1.91-10.13-.72-1.32-1.11-2.51-2.48-3.43-3.95-7.64-12.21-15.11-24.54-22.81-36.71-8.34-13.2-16.85-26.29-25.34-39.4-5.52-8.53-13.42-13.64-23.43-14.82-7.97-.94-15.81.17-22.73,4.74-4.76,3.16-8.66,7.23-11,12.47-2.61,5.85-3.48,11.97-2.84,18.46.68,6.86,3.3,12.89,6.7,18.64,3.82,6.46,7.98,12.72,11.96,19.08,7.07,11.3,14.1,22.62,21.19,33.9,4.73,7.53,9.58,14.98,14.31,22.5,7.09,11.28,14.11,22.62,21.22,33.89,2.71,4.3,5.64,8.45,8.38,12.73,1.72,2.7,3.2,5.55,4.9,8.27,3.7,5.89,7.51,11.73,11.22,17.62,5.15,8.18,10.24,16.39,15.39,24.58,3.38,5.39,6.86,10.72,10.22,16.12,5.16,8.32,10.21,16.7,15.38,25.01,5.29,8.49,9.82,17.35,13.13,26.8,2.47,7.09,4.46,14.3,5.14,21.82.36,4.01.9,8.03,1.01,12.05.08,2.93-.46,5.88-.65,8.82-.44,6.63-1.92,13.05-3.82,19.37-2.49,8.26-6.1,16.03-10.27,23.57-4.36,7.88-9.44,15.26-15.47,21.9-6.3,6.95-13.22,13.25-21.31,18.21-8.14,4.98-16.68,8.96-25.87,11.54-10.25,2.87-20.71,4.31-31.36,4.19-4.34-.05-8.71-.21-13.02-.76-5.21-.67-10.44-1.52-15.53-2.8-9.05-2.28-17.59-5.9-25.65-10.68-10.59-6.29-19.93-14.03-27.63-23.64-6.35-7.92-12.07-16.31-17.11-25.16-4.22-7.4-9-8.62-16.03-4.21-11.84,7.43-23.69,14.87-35.5,22.35-2.34,1.48-4.61,3.07-5.78,5.78-1.5,3.44-.65,6.73,1.02,9.67,3.54,6.26,7.24,12.45,11.19,18.47,5.45,8.28,11.82,15.86,18.79,22.91,3.37,3.39,6.87,6.68,10.52,9.77,4.27,3.61,8.66,7.09,13.18,10.37,9.29,6.72,19.31,12.2,29.8,16.77,4.94,2.14,9.95,4.18,15.08,5.8,6.49,2.06,13.08,3.84,19.71,5.36,6.17,1.42,12.43,2.54,18.7,3.45,5.18.76,10.41,1.24,15.64,1.46,5.79.25,11.62.35,17.4-.01,6.41-.39,12.83-1.08,19.14-2.19,6.7-1.18,13.37-2.7,19.9-4.61,8.16-2.38,16.16-5.31,23.62-9.53,5.94-3.37,12.08-6.42,17.83-10.1,9.12-5.82,17.47-12.69,25.01-20.49,1.56-1.6,3.15-3.19,4.66-4.85,2.59-2.85,5.31-5.62,7.66-8.68,3.87-5.02,7.65-10.13,11.14-15.42,3.25-4.9,6.33-9.96,9.01-15.19,3.15-6.15,5.83-12.55,8.65-18.87,1.22-2.76,2.42-5.55,3.41-8.4,3.5-10.08,6.61-20.27,7.85-30.93.62-5.31,1.56-10.62,1.71-15.94.26-8.78.42-17.59-1.01-26.32-.92-5.61-1.52-11.31-2.9-16.81-1.91-7.65-4.07-15.28-6.77-22.69-2.55-7.03-5.48-14.01-9.05-20.57-5.94-10.91-12.37-21.56-18.89-32.14-8.85-14.36-17.98-28.55-27.01-42.81-2.18-3.45-4.65-6.74-6.55-10.34-2.4-4.55-2.74-7.76,2.81-11.82,3.97-2.91,8.34-5.28,12.52-7.89,7.49-4.67,14.96-9.36,22.46-14.01,5.03-3.12,10.07-6.23,15.15-9.26,2.45-1.46,5.04-1.61,7.39.23,1.01.79,1.9,1.84,2.59,2.94,5.07,8.08,10.01,16.25,15.13,24.31,8.65,13.64,17.64,27.07,26.03,40.87,6.29,10.36,12.02,21.07,17.68,31.8,6.31,11.96,11.33,24.49,15.11,37.49,1.71,5.85,3.29,11.75,4.61,17.71,1.23,5.55,2.11,11.18,2.98,16.8.73,4.63,1.32,9.28,1.78,13.93.31,3.07.27,6.18.42,9.26.02.42.29.82.45,1.22Z"/>
</svg>